# xmcd
#
# Track frame offsets: 
#        150
#        14556
#        30612
#        46669
#        63924
#        77730
#        98436
#        131671
#
# Disc length: 1996 seconds
#
# Revision: 0
# Processed by: cddbd v1.5.2PL0 Copyright (c) Steve Scherf et al.
# Submitted via: ExactAudioCopy v0.99pb4
#
DISCID=5807ca08
DTITLE=Davis, Gary - A Chocolate Star Christmas
DYEAR=2008
DGENRE=Christmas/Holiday
TTITLE0=A Chocolate Star Christmas
TTITLE1=Jingle Them Bells
TTITLE2=Ho! Ho! Ho! Here Comes Santa
TTITLE3=Silent Night (Featuring Mr. Jahmar M.)
TTITLE4=O Christmas Tree
TTITLE5=We Three Kings
TTITLE6=The Drummer Boy
TTITLE7=Got To Get Your Love 2008
EXTD=
EXTT0=
EXTT1=
EXTT2=
EXTT3=
EXTT4=
EXTT5=
EXTT6=
EXTT7=
PLAYORDER=
